# xmcd
#
# Track frame offsets:
#	150
#	18526
#	36235
#	49808
#	69846
#	85751
#	97580
#	111774
#	132362
#	153157
#
# Disc length: 2259 seconds
#
# Revision: 1
# Processed by: cddbd v1.5.2PL0 Copyright (c) Steve Scherf et al.
# Submitted via: EZCDAudioConverter 7.0.6.1
#
DISCID=7108d10a
DTITLE=Procol Harum - Super Star
DYEAR=1979
DGENRE=
TTITLE0=A Whiter Shade Of Pale
TTITLE1=Homburg
TTITLE2=Lime Street Blues
TTITLE3=Whiskey Train
TTITLE4=Shine On Brightly
TTITLE5=Conquistador
TTITLE6=Long Gone Geek
TTITLE7=Boredom
TTITLE8=A Salty Dog
TTITLE9=Quite Rightly So
EXTD=
EXTT0=
EXTT1=
EXTT2=
EXTT3=
EXTT4=
EXTT5=
EXTT6=
EXTT7=
EXTT8=
EXTT9=
PLAYORDER=
